<?xml version="1.0" standalone="no"?><!DOCTYPE svg PUBLIC "-//W3C//DTD SVG 1.1//EN" "http://www.w3.org/Graphics/SVG/1.1/DTD/svg11.dtd"><svg t="1559899500382" class="icon" style="" viewBox="0 0 1024 1024" version="1.1" xmlns="http://www.w3.org/2000/svg" p-id="1144" xmlns:xlink="http://www.w3.org/1999/xlink" width="200" height="200"><defs><style type="text/css"></style></defs><path d="M416.3 429.2m-18 0a18 18 0 1 0 36 0 18 18 0 1 0-36 0Z" fill="#2c2c2c" p-id="1145"></path><path d="M608.4 429.2m-18 0a18 18 0 1 0 36 0 18 18 0 1 0-36 0Z" fill="#2c2c2c" p-id="1146"></path><path d="M834.2 659c-13.6-31.6-33.3-52.4-60.4-63.7-4.6-1.9-9.3-3.5-14.4-4.9 7.1-23.6 10.9-48.5 10.9-74.4 0-69.7-27.6-132.9-72.5-179.3 7.9-5.3 15.6-8.7 23.4-10.2 44.6-8.8 56.1-34.7 58.9-49.3 3.4-17.2-1.1-36.3-13-55.4-10.9-17.6-27.5-34-47.8-47.5-25.4-16.8-54.2-26.5-79-26.5-22.4 0-40.8 7.9-51.8 22.3-15.2 19.8-12.6 45.8-7.7 64.2 2.8 10.3 2.7 24.1 0 32.8v0.2c-21.8-6-44.8-9.2-68.6-9.2-23.7 0-46.7 3.2-68.6 9.2v-0.2c-2.8-8.7-2.8-22.5 0-32.8 4.9-18.3 7.5-44.4-7.7-64.2-11-14.4-29.5-22.3-51.8-22.3-24.7 0-53.5 9.7-79 26.5-20.3 13.5-36.9 29.9-47.8 47.5-11.9 19.1-16.4 38.3-13 55.4 2.9 14.6 14.4 40.4 58.9 49.3 7.8 1.6 15.5 4.9 23.4 10.2-44.6 46.4-72.2 109.6-72.2 179.3 0 25.7 3.8 50.5 10.8 73.9-5.8 1.5-11.2 3.3-16.3 5.4-27.1 11.3-46.8 32.1-60.4 63.7-1.7 4.1 0.1 8.8 4.2 10.5 1 0.4 2.1 0.7 3.2 0.7 3.1 0 6.1-1.8 7.4-4.8 14.2-33 34.7-52.2 67.1-60.2 2.2 5.9 4.5 11.7 7.1 17.3-5.8 3-11.5 6.6-17 10.7-30.5 22.3-48.5 55.5-48.5 88.7 0 4.4 3.6 8 8 8s8-3.6 8-8c0-28.1 15.6-56.5 41.8-75.8 4.7-3.5 9.6-6.5 14.6-9.2 43.3 81.6 129.2 137.1 228 137.1 98.5 0 184-55.2 227.5-136.2 4.4 2.4 8.8 5.2 13 8.3 26.2 19.4 41.8 47.7 41.8 75.8 0 4.4 3.6 8 8 8s8-3.6 8-8c0-33.2-18.1-66.3-48.3-88.7-5-3.7-10.1-6.9-15.3-9.8 2.7-5.8 5.1-11.7 7.3-17.7 31.3 8.3 51.3 27.4 65.2 59.7 1.3 3 4.3 4.8 7.4 4.8 1.1 0 2.1-0.2 3.2-0.7 3.9-1.7 5.8-6.4 4-10.5z m-238-387.1c3.9-12.3 3.6-29.3 0.2-41.8-12.2-45.7 10.6-66.4 44.1-66.4 21.2 0 46.7 8.3 70.1 23.8 61.9 41 80.2 108.7 7.6 123.1-12.4 2.5-23 8-32 14.5-25.8-23.3-56.3-41.6-90-53.2z m-282.1-84.3c23.5-15.5 48.9-23.8 70.1-23.8 33.4 0 56.3 20.7 44.1 66.4-3.3 12.5-3.7 29.5 0.2 41.8-33.7 11.6-64.2 29.9-90 53.4-9.1-6.5-19.6-12.1-32-14.5-72.5-14.5-54.3-82.3 7.6-123.3z m421.3 422.6c-0.9 2.2-1.9 4.3-2.9 6.5-19.9-7.6-40.3-9-58-3.6-4.2 1.3-6.6 5.8-5.3 10 1.3 4.2 5.8 6.6 10 5.3 13.7-4.2 30-3.1 46.1 2.8-11.1 20.5-25.1 39.3-41.8 56-22.2 22.2-48.1 39.7-76.9 51.9-29.8 12.6-61.5 19-94.2 19s-64.4-6.4-94.2-19c-28.8-12.2-54.7-29.6-76.9-51.9-16.9-16.9-31-35.8-42.1-56.6 15.5-5.3 31.1-6.2 44.4-2.1 4.2 1.3 8.7-1.1 10-5.3 1.3-4.2-1.1-8.7-5.3-10-17.2-5.3-36.9-4.1-56.2 2.9-0.9-1.9-1.7-3.9-2.6-5.8-1.1-2.6-2.2-5.3-3.2-8 15.4-1.9 33.1-1.9 53.5-0.1 4.4 0.4 8.3-2.9 8.7-7.3 0.4-4.4-2.9-8.3-7.3-8.7-23.4-2-43.2-1.9-60.3 0.6-7-22.8-10.5-46.5-10.5-70.8 0-32.7 6.4-64.4 19-94.2 12.2-28.8 29.6-54.7 51.9-76.9 22.2-22.2 48.1-39.7 76.9-51.9 29.8-12.6 61.5-19 94.2-19s64.4 6.4 94.2 19c28.8 12.2 54.7 29.6 76.9 51.9 22.2 22.2 39.7 48.1 51.9 76.9 12.6 29.8 19 61.5 19 94.2 0 24.4-3.6 48.2-10.6 71.1-17.5-2.8-38-3-62.3-0.9-4.4 0.4-7.7 4.3-7.3 8.7 0.4 4.4 4.3 7.7 8.7 7.3 21.3-1.9 39.7-1.8 55.6 0.4-1 2.5-2 5-3.1 7.6z" fill="#2c2c2c" p-id="1147"></path></svg>